<svg width="239" height="433" viewBox="0 0 239 433" fill="none" xmlns="http://www.w3.org/2000/svg">
<path fill-rule="evenodd" clip-rule="evenodd" d="M160.203 21.5222C126.262 18.1045 96.7967 44.7521 96.7967 78.8645V168.953C96.7967 174.814 92.0455 179.566 86.1845 179.566C80.3235 179.566 75.5723 174.814 75.5723 168.953V78.8645C75.5723 32.1894 115.89 -4.27185 162.33 0.404572L169.826 1.15942C187.281 2.9171 203.702 10.2651 216.643 22.1094C229.536 33.9089 236.878 50.5819 236.878 68.0589V158.344C236.878 164.205 232.127 168.956 226.266 168.956C220.405 168.956 215.654 164.205 215.654 158.344V68.0589C215.654 56.5371 210.813 45.5452 202.314 37.7664C192.745 29.0093 180.605 23.5766 167.699 22.2771L160.203 21.5222Z" fill="#0094FF"/>
<path fill-rule="evenodd" clip-rule="evenodd" d="M239 158.339C239 164.2 234.249 168.951 228.388 168.951H139.245C76.287 168.951 35.4984 211.364 24.3032 261.604C13.0943 311.905 31.8474 368.884 88.101 397.589C105.145 406.287 124.189 410.91 143.288 410.91H158.347C164.208 410.91 168.959 415.661 168.959 421.522C168.959 427.383 164.208 432.134 158.347 432.134H143.288C120.799 432.134 98.4526 426.7 78.4538 416.495C12.4513 382.814 -9.43866 315.441 3.58691 256.988C16.6262 198.472 64.9495 147.727 139.245 147.727H228.388C234.249 147.727 239 152.478 239 158.339Z" fill="#EAEEF4"/>
<path d="M183.816 251.723C183.816 265.79 172.413 277.193 158.346 277.193C144.28 277.193 132.877 265.79 132.877 251.723C132.877 237.657 144.28 226.254 158.346 226.254C172.413 226.254 183.816 237.657 183.816 251.723Z" fill="#EAEEF4"/>
<path d="M154.407 265.778C155.833 262.228 160.859 262.228 162.285 265.778L185.415 323.368C186.535 326.157 184.482 329.195 181.476 329.195H135.216C132.21 329.195 130.157 326.157 131.277 323.368L154.407 265.778Z" fill="#EAEEF4"/>
</svg>
